<svg xmlns="http://www.w3.org/2000/svg" width="24" height="24" viewBox="0 0 24 24"><path fill="red" d="M 15 0 c -0.8297 0 -1.5 0.6703 -1.5 1.5 s 0.6703 1.5 1.5 1.5 h 3.8766 L 9.4406 12.4406 c -0.5859 0.5859 -0.5859 1.5375 0 2.1234 s 1.5375 0.5859 2.1234 0 L 21 5.1234 V 9 c 0 0.8297 0.6703 1.5 1.5 1.5 s 1.5 -0.6703 1.5 -1.5 V 1.5 c 0 -0.8297 -0.6703 -1.5 -1.5 -1.5 H 15 z M 3.75 1.5 C 1.6781 1.5 0 3.1781 0 5.25 V 20.25 c 0 2.0719 1.6781 3.75 3.75 3.75 H 18.75 c 2.0719 0 3.75 -1.6781 3.75 -3.75 V 15 c 0 -0.8297 -0.6703 -1.5 -1.5 -1.5 s -1.5 0.6703 -1.5 1.5 V 20.25 c 0 0.4125 -0.3375 0.75 -0.75 0.75 H 3.75 c -0.4125 0 -0.75 -0.3375 -0.75 -0.75 V 5.25 c 0 -0.4125 0.3375 -0.75 0.75 -0.75 H 9 c 0.8297 0 1.5 -0.6703 1.5 -1.5 s -0.6703 -1.5 -1.5 -1.5 H 3.75 z"/></svg>
